<?xml version="1.0" encoding="UTF-8" standalone="no"?>
<svg
   xmlns:dc="http://purl.org/dc/elements/1.1/"
   xmlns:cc="http://creativecommons.org/ns#"
   xmlns:rdf="http://www.w3.org/1999/02/22-rdf-syntax-ns#"
   xmlns:svg="http://www.w3.org/2000/svg"
   xmlns="http://www.w3.org/2000/svg"
   id="svg8"
   version="1.1"
   viewBox="0 0 105.83334 105.56875"
   height="105.56875mm"
   width="105.83334mm">
  <defs
     id="defs2" />
  <metadata
     id="metadata5">
    <rdf:RDF>
      <cc:Work
         rdf:about="">
        <dc:format>image/svg+xml</dc:format>
        <dc:type
           rdf:resource="http://purl.org/dc/dcmitype/StillImage" />
        <dc:title></dc:title>
      </cc:Work>
    </rdf:RDF>
  </metadata>
  <g
     transform="translate(-6.0476103,-6.8465714)"
     id="layer1">
    <path
       style="fill:#000000;stroke-width:0.26458335"
       d="M 88.10146,96.743961 71.93945,80.581949 69.84584,81.952014 C 64.18406,85.657102 57.55801,87.857491 50.86029,88.256765 38.58879,88.988312 28.09681,85.05936 19.581,76.543547 14.88992,71.852474 11.78268,66.89508 9.8097705,60.954238 c -4.2373,-12.759447 -2.06211,-26.362564 5.9292095,-37.07984 2.5163,-3.374636 7.12355,-7.644363 10.76422,-9.975637 0.59637,-0.381878 2.18653,-1.247897 3.5337,-1.924486 9.56944,-4.8060597 20.52391,-5.5587837 30.87434,-2.1214967 9.86861,3.2772827 18.49971,10.7897287 23.23875,20.2268407 4.65133,9.262451 5.47414,20.675577 2.20402,30.571864 -0.97502,2.950688 -2.99304,7.117489 -4.54896,9.392707 l -1.17609,1.719792 16.18262,16.205639 16.18261,16.205639 -4.36536,4.36535 -4.36535,4.36536 z M 52.83476,75.741259 c 13.38702,-2.344486 23.25185,-14.078451 23.25185,-27.657485 0,-15.539872 -12.50597,-28.045834 -28.04584,-28.045834 -15.53973,0 -28.04583,12.506106 -28.04583,28.045834 0,12.206621 7.74988,22.876864 19.40299,26.714553 4.00123,1.317715 9.20976,1.683223 13.43683,0.942932 z"
       id="path23" />
  </g>
</svg>
